<mxfile host="app.diagrams.net" modified="2023-12-31T10:55:09.164Z" agent="Mozilla/5.0 (Windows NT 10.0; Win64; x64) AppleWebKit/537.36 (KHTML, like Gecko) Chrome/120.0.0.0 Safari/537.36" etag="zhLpEKtznpi0Xddm5WDD" version="21.6.3" type="device">
  <diagram name="Pagina-1" id="DVc7VTB0FPkBOh6ckJzu">
    <mxGraphModel dx="1623" dy="793" grid="1" gridSize="10" guides="1" tooltips="1" connect="1" arrows="1" fold="1" page="1" pageScale="1" pageWidth="827" pageHeight="1169" math="0" shadow="0">
      <root>
        <mxCell id="0" />
        <mxCell id="1" parent="0" />
        <mxCell id="jJ-hoMrN5up2MkBIS1do-3" style="rounded=0;orthogonalLoop=1;jettySize=auto;html=1;exitX=0;exitY=1;exitDx=0;exitDy=0;entryX=1;entryY=0;entryDx=0;entryDy=0;" edge="1" parent="1" source="jJ-hoMrN5up2MkBIS1do-1" target="jJ-hoMrN5up2MkBIS1do-2">
          <mxGeometry relative="1" as="geometry" />
        </mxCell>
        <mxCell id="jJ-hoMrN5up2MkBIS1do-16" value="&lt;font style=&quot;font-size: 24px;&quot;&gt;Dust&lt;/font&gt;" style="edgeLabel;html=1;align=center;verticalAlign=middle;resizable=0;points=[];" vertex="1" connectable="0" parent="jJ-hoMrN5up2MkBIS1do-3">
          <mxGeometry x="0.1272" y="1" relative="1" as="geometry">
            <mxPoint x="12" y="-8" as="offset" />
          </mxGeometry>
        </mxCell>
        <mxCell id="jJ-hoMrN5up2MkBIS1do-6" style="rounded=0;orthogonalLoop=1;jettySize=auto;html=1;exitX=1;exitY=1;exitDx=0;exitDy=0;entryX=0;entryY=0;entryDx=0;entryDy=0;" edge="1" parent="1" source="jJ-hoMrN5up2MkBIS1do-1" target="jJ-hoMrN5up2MkBIS1do-5">
          <mxGeometry relative="1" as="geometry" />
        </mxCell>
        <mxCell id="jJ-hoMrN5up2MkBIS1do-21" value="&lt;font style=&quot;font-size: 24px;&quot;&gt;Move&lt;/font&gt;" style="edgeLabel;html=1;align=center;verticalAlign=middle;resizable=0;points=[];" vertex="1" connectable="0" parent="jJ-hoMrN5up2MkBIS1do-6">
          <mxGeometry x="-0.2466" y="-1" relative="1" as="geometry">
            <mxPoint x="24" y="9" as="offset" />
          </mxGeometry>
        </mxCell>
        <mxCell id="jJ-hoMrN5up2MkBIS1do-17" style="rounded=0;orthogonalLoop=1;jettySize=auto;html=1;exitX=0.5;exitY=1;exitDx=0;exitDy=0;entryX=0.5;entryY=0;entryDx=0;entryDy=0;strokeColor=#FF0000;" edge="1" parent="1" source="jJ-hoMrN5up2MkBIS1do-1" target="jJ-hoMrN5up2MkBIS1do-37">
          <mxGeometry relative="1" as="geometry">
            <Array as="points" />
          </mxGeometry>
        </mxCell>
        <mxCell id="jJ-hoMrN5up2MkBIS1do-18" value="&lt;font style=&quot;font-size: 24px;&quot;&gt;Sweep&lt;/font&gt;" style="edgeLabel;html=1;align=center;verticalAlign=middle;resizable=0;points=[];" vertex="1" connectable="0" parent="jJ-hoMrN5up2MkBIS1do-17">
          <mxGeometry x="0.0391" y="-3" relative="1" as="geometry">
            <mxPoint x="3" y="-1" as="offset" />
          </mxGeometry>
        </mxCell>
        <mxCell id="jJ-hoMrN5up2MkBIS1do-1" value="&lt;font style=&quot;font-size: 24px;&quot;&gt;Root&lt;/font&gt;" style="ellipse;whiteSpace=wrap;html=1;aspect=fixed;" vertex="1" parent="1">
          <mxGeometry x="230" y="200" width="80" height="80" as="geometry" />
        </mxCell>
        <mxCell id="jJ-hoMrN5up2MkBIS1do-8" style="rounded=0;orthogonalLoop=1;jettySize=auto;html=1;exitX=0;exitY=1;exitDx=0;exitDy=0;entryX=1;entryY=0;entryDx=0;entryDy=0;strokeColor=#FF0000;" edge="1" parent="1" source="jJ-hoMrN5up2MkBIS1do-2" target="jJ-hoMrN5up2MkBIS1do-7">
          <mxGeometry relative="1" as="geometry" />
        </mxCell>
        <mxCell id="jJ-hoMrN5up2MkBIS1do-23" value="&lt;font style=&quot;font-size: 24px;&quot;&gt;Dust&lt;/font&gt;" style="edgeLabel;html=1;align=center;verticalAlign=middle;resizable=0;points=[];" vertex="1" connectable="0" parent="jJ-hoMrN5up2MkBIS1do-8">
          <mxGeometry x="0.0466" y="-2" relative="1" as="geometry">
            <mxPoint x="-17" y="19" as="offset" />
          </mxGeometry>
        </mxCell>
        <mxCell id="jJ-hoMrN5up2MkBIS1do-10" style="rounded=0;orthogonalLoop=1;jettySize=auto;html=1;exitX=1;exitY=1;exitDx=0;exitDy=0;entryX=0;entryY=0;entryDx=0;entryDy=0;" edge="1" parent="1" source="jJ-hoMrN5up2MkBIS1do-2" target="jJ-hoMrN5up2MkBIS1do-9">
          <mxGeometry relative="1" as="geometry" />
        </mxCell>
        <mxCell id="jJ-hoMrN5up2MkBIS1do-26" value="&lt;font style=&quot;font-size: 24px;&quot;&gt;Move&lt;/font&gt;" style="edgeLabel;html=1;align=center;verticalAlign=middle;resizable=0;points=[];" vertex="1" connectable="0" parent="jJ-hoMrN5up2MkBIS1do-10">
          <mxGeometry x="-0.0421" y="5" relative="1" as="geometry">
            <mxPoint x="7" y="25" as="offset" />
          </mxGeometry>
        </mxCell>
        <mxCell id="jJ-hoMrN5up2MkBIS1do-24" style="rounded=0;orthogonalLoop=1;jettySize=auto;html=1;exitX=0.5;exitY=1;exitDx=0;exitDy=0;strokeColor=#FF0000;entryX=0.5;entryY=0;entryDx=0;entryDy=0;" edge="1" parent="1" source="jJ-hoMrN5up2MkBIS1do-2" target="jJ-hoMrN5up2MkBIS1do-38">
          <mxGeometry relative="1" as="geometry">
            <mxPoint x="60" y="379.35" as="sourcePoint" />
            <mxPoint x="2.8112899546613335" y="480.0012713307782" as="targetPoint" />
            <Array as="points" />
          </mxGeometry>
        </mxCell>
        <mxCell id="jJ-hoMrN5up2MkBIS1do-25" value="&lt;font style=&quot;font-size: 24px;&quot;&gt;sweep&lt;/font&gt;" style="edgeLabel;html=1;align=center;verticalAlign=middle;resizable=0;points=[];" vertex="1" connectable="0" parent="jJ-hoMrN5up2MkBIS1do-24">
          <mxGeometry x="-0.0979" y="-1" relative="1" as="geometry">
            <mxPoint x="6" y="-6" as="offset" />
          </mxGeometry>
        </mxCell>
        <mxCell id="jJ-hoMrN5up2MkBIS1do-2" value="&lt;font style=&quot;font-size: 36px;&quot;&gt;C1&lt;/font&gt;" style="ellipse;whiteSpace=wrap;html=1;aspect=fixed;" vertex="1" parent="1">
          <mxGeometry x="40" y="340" width="80" height="80" as="geometry" />
        </mxCell>
        <mxCell id="jJ-hoMrN5up2MkBIS1do-14" style="rounded=0;orthogonalLoop=1;jettySize=auto;html=1;exitX=1;exitY=1;exitDx=0;exitDy=0;entryX=0;entryY=0;entryDx=0;entryDy=0;strokeColor=#FF0000;" edge="1" parent="1" source="jJ-hoMrN5up2MkBIS1do-5" target="jJ-hoMrN5up2MkBIS1do-13">
          <mxGeometry relative="1" as="geometry" />
        </mxCell>
        <mxCell id="jJ-hoMrN5up2MkBIS1do-33" value="&lt;font style=&quot;font-size: 24px;&quot;&gt;Move&lt;/font&gt;" style="edgeLabel;html=1;align=center;verticalAlign=middle;resizable=0;points=[];" vertex="1" connectable="0" parent="jJ-hoMrN5up2MkBIS1do-14">
          <mxGeometry x="-0.4332" y="3" relative="1" as="geometry">
            <mxPoint x="37" y="34" as="offset" />
          </mxGeometry>
        </mxCell>
        <mxCell id="jJ-hoMrN5up2MkBIS1do-15" style="rounded=0;orthogonalLoop=1;jettySize=auto;html=1;exitX=0.5;exitY=1;exitDx=0;exitDy=0;entryX=0.5;entryY=0;entryDx=0;entryDy=0;strokeColor=#FF0000;" edge="1" parent="1" source="jJ-hoMrN5up2MkBIS1do-5" target="jJ-hoMrN5up2MkBIS1do-12">
          <mxGeometry relative="1" as="geometry">
            <mxPoint x="459.99572875253807" y="430.00427124746193" as="sourcePoint" />
            <mxPoint x="532.5642712474616" y="523.4357287525381" as="targetPoint" />
          </mxGeometry>
        </mxCell>
        <mxCell id="jJ-hoMrN5up2MkBIS1do-29" value="&lt;font style=&quot;font-size: 24px;&quot;&gt;Sweep&lt;/font&gt;" style="edgeLabel;html=1;align=center;verticalAlign=middle;resizable=0;points=[];" vertex="1" connectable="0" parent="jJ-hoMrN5up2MkBIS1do-15">
          <mxGeometry x="0.0339" y="-2" relative="1" as="geometry">
            <mxPoint x="-1" y="-11" as="offset" />
          </mxGeometry>
        </mxCell>
        <mxCell id="jJ-hoMrN5up2MkBIS1do-35" style="rounded=0;orthogonalLoop=1;jettySize=auto;html=1;exitX=0;exitY=1;exitDx=0;exitDy=0;entryX=0.5;entryY=0;entryDx=0;entryDy=0;" edge="1" parent="1" source="jJ-hoMrN5up2MkBIS1do-5" target="jJ-hoMrN5up2MkBIS1do-34">
          <mxGeometry relative="1" as="geometry" />
        </mxCell>
        <mxCell id="jJ-hoMrN5up2MkBIS1do-36" value="&lt;font style=&quot;font-size: 24px;&quot;&gt;Dust&lt;/font&gt;" style="edgeLabel;html=1;align=center;verticalAlign=middle;resizable=0;points=[];" vertex="1" connectable="0" parent="jJ-hoMrN5up2MkBIS1do-35">
          <mxGeometry x="0.1328" y="-1" relative="1" as="geometry">
            <mxPoint x="-5" y="11" as="offset" />
          </mxGeometry>
        </mxCell>
        <mxCell id="jJ-hoMrN5up2MkBIS1do-5" value="&lt;font style=&quot;font-size: 36px;&quot;&gt;C3&lt;/font&gt;" style="ellipse;whiteSpace=wrap;html=1;aspect=fixed;" vertex="1" parent="1">
          <mxGeometry x="414" y="340" width="80" height="80" as="geometry" />
        </mxCell>
        <mxCell id="jJ-hoMrN5up2MkBIS1do-7" value="&lt;font style=&quot;font-size: 36px;&quot;&gt;G1&lt;/font&gt;" style="ellipse;whiteSpace=wrap;html=1;aspect=fixed;strokeColor=#FF0000;" vertex="1" parent="1">
          <mxGeometry x="-100" y="500" width="80" height="80" as="geometry" />
        </mxCell>
        <mxCell id="jJ-hoMrN5up2MkBIS1do-9" value="&lt;font style=&quot;font-size: 36px;&quot;&gt;G3&lt;/font&gt;" style="ellipse;whiteSpace=wrap;html=1;aspect=fixed;" vertex="1" parent="1">
          <mxGeometry x="160" y="500" width="80" height="80" as="geometry" />
        </mxCell>
        <mxCell id="jJ-hoMrN5up2MkBIS1do-12" value="&lt;font style=&quot;font-size: 36px;&quot;&gt;G5&lt;/font&gt;" style="ellipse;whiteSpace=wrap;html=1;aspect=fixed;strokeColor=#FF0000;" vertex="1" parent="1">
          <mxGeometry x="420" y="500" width="80" height="80" as="geometry" />
        </mxCell>
        <mxCell id="jJ-hoMrN5up2MkBIS1do-13" value="&lt;font style=&quot;font-size: 36px;&quot;&gt;G6&lt;/font&gt;" style="ellipse;whiteSpace=wrap;html=1;aspect=fixed;strokeColor=#FF0000;" vertex="1" parent="1">
          <mxGeometry x="570" y="500" width="80" height="80" as="geometry" />
        </mxCell>
        <mxCell id="jJ-hoMrN5up2MkBIS1do-34" value="&lt;font style=&quot;font-size: 36px;&quot;&gt;G4&lt;/font&gt;" style="ellipse;whiteSpace=wrap;html=1;aspect=fixed;" vertex="1" parent="1">
          <mxGeometry x="280" y="500" width="80" height="80" as="geometry" />
        </mxCell>
        <mxCell id="jJ-hoMrN5up2MkBIS1do-37" value="&lt;font style=&quot;font-size: 36px;&quot;&gt;C2&lt;/font&gt;" style="ellipse;whiteSpace=wrap;html=1;aspect=fixed;strokeColor=#FF0000;" vertex="1" parent="1">
          <mxGeometry x="230" y="340" width="80" height="80" as="geometry" />
        </mxCell>
        <mxCell id="jJ-hoMrN5up2MkBIS1do-38" value="&lt;font style=&quot;font-size: 36px;&quot;&gt;G2&lt;/font&gt;" style="ellipse;whiteSpace=wrap;html=1;aspect=fixed;strokeColor=#FF0000;" vertex="1" parent="1">
          <mxGeometry x="30" y="500" width="80" height="80" as="geometry" />
        </mxCell>
      </root>
    </mxGraphModel>
  </diagram>
</mxfile>
